PathFileType	4	(X/Y/Z)	RBDS04\RBDS04runT35.trc
DataRate	CameraRate	NumFrames	NumMarkers	Units	OrigDataRate	OrigDataStartFrame	OrigNumFrames
150.000000	150.000000	6	33	mm	150.000000	562	4500
Frame#	Time	L.ASIS			L.Heel.Bottom			L.Heel.Lateral			L.Heel.Top			L.Iliac.Crest			L.MT1			L.MT5			L.PSIS			L.Shank.Bottom.Lateral			L.Shank.Bottom.Medial			L.Shank.Top.Lateral			L.Shank.Top.Medial			L.Thigh.Bottom.Lateral			L.Thigh.Bottom.Medial			L.Thigh.Top.Lateral			L.Thigh.Top.Medial			R.ASIS			R.ASY			R.Heel.Bottom			R.Heel.Lateral			R.Heel.Top			R.Iliac.Crest			R.MT1			R.MT5			R.PSIS			R.Shank.Bottom.Lateral			R.Shank.Bottom.Medial			R.Shank.Top.Lateral			R.Shank.Top.Medial			R.Thigh.Bottom.Lateral			R.Thigh.Bottom.Medial			R.Thigh.Top.Lateral			R.Thigh.Top.Medial			
		X1	Y1	Z1	X2	Y2	Z2	X3	Y3	Z3	X4	Y4	Z4	X5	Y5	Z5	X6	Y6	Z6	X7	Y7	Z7	X8	Y8	Z8	X9	Y9	Z9	X10	Y10	Z10	X11	Y11	Z11	X12	Y12	Z12	X13	Y13	Z13	X14	Y14	Z14	X15	Y15	Z15	X16	Y16	Z16	X17	Y17	Z17	X18	Y18	Z18	X19	Y19	Z19	X20	Y20	Z20	X21	Y21	Z21	X22	Y22	Z22	X23	Y23	Z23	X24	Y24	Z24	X25	Y25	Z25	X26	Y26	Z26	X27	Y27	Z27	X28	Y28	Z28	X29	Y29	Z29	X30	Y30	Z30	X31	Y31	Z31	X32	Y32	Z32	X33	Y33	Z33	

563	3.746666666666667	2233.63769935757	903.5708463159024	914.3081267955388	1783.336611915315	508.702486971499	966.4860292534993	1790.673046381404	474.5455973371143	923.8603096509281	1826.045778616313	490.1919807585605	965.7676513480233	2181.213520659051	971.0885531657799	864.7574306675403	1763.358215822515	294.0233143232656	1001.0383609355	1747.417259275064	328.6256332182379	905.5386797593978	2067.430092424173	945.4719176944601	960.8889195639539	1904.862164166888	428.3117917744229	905.8513937055512	1903.924047961702	470.9783178495834	933.8294434711785	1983.887712957802	436.8172236995626	889.923032690962	1987.061304368924	480.76692323905	919.8361926121366	2210.401504261965	543.6204597352707	846.1358622389779	2149.500785937666	530.3219618597321	884.2465419133943	2177.737268023785	648.0031485172357	834.2163697980222	2119.737115757547	635.7606647641659	869.2696537616446	2224.773645466523	913.7500004368658	1105.598690543839	2213.637460216132	80.4144241253786	1041.898333404828	2041.892897781641	30.61678969448496	1031.361447801899	2070.814445672855	47.57412849754302	1073.537780660879	2053.061264132691	75.45773267581738	1030.223427469314	2160.835765629411	958.4561889190047	1152.772682405986	2258.571154538145	46.55723264380525	1011.607207728742	2221.781062356524	41.77404892773732	1107.097780976163	2063.246978994786	950.3329431204286	1044.188562208007	2146.935924317233	153.4490022754475	1091.935890614179	2108.95352642738	175.5257939885672	1059.488375233976	2168.050189264666	228.9963490247165	1115.311253519275	2132.662178865229	249.7220303869331	1079.424988427073	2234.544886219131	549.742627373028	1153.857528614023	2183.343363275945	533.3719717094647	1103.413406069958	2184.168999937257	646.9315406131359	1171.215358701	2132.773732422111	629.0612922411079	1126.504176709701	
564	3.753333333333333	2231.749477135699	902.5074500035111	915.2033394008413	1795.685515666408	505.052110321639	962.9110026337771	1805.095285214813	470.3055140963825	920.9517846063352	1839.020617826538	487.6462300368702	963.5459844357671	2178.277673512675	969.4623632870592	865.2397728525661	1781.766652765074	290.4864895113321	1001.354787157269	1766.875920598298	322.7295613449886	904.8486973471961	2065.440392630689	944.6829463158281	961.7193650591878	1920.332055250206	426.3102351618503	905.1001093181955	1918.762279400418	469.2928298173229	932.4806813780737	1999.274923932298	435.6470946511409	889.2420750776661	2001.802654343767	479.9519775665667	918.6390540608946	2220.702554765774	545.5379391543073	845.5047332107566	2160.383822098924	529.507260062919	883.4240442129114	2183.938402117933	648.5115861013638	834.1545920556063	2126.346500168144	633.7270680346361	868.8997352884982	2222.880066355906	912.3044194738021	1106.590299839321	2189.914348666021	80.79225166239327	1042.564281522909	2018.458614252711	30.98251830936993	1031.750017092874	2047.360634469722	47.76349858737802	1074.006631530457	2029.557535836271	75.78305301581335	1030.862410617056	2158.144554275836	956.7829336907629	1153.744178165051	2234.732196369696	47.29557755917077	1012.173162626607	2198.260332974232	41.99567265291455	1107.522716542777	2061.509256571801	949.5199127957083	1044.845369034334	2126.231945502232	153.601929667042	1092.725822572566	2088.789592955423	176.9411954384254	1060.550469338423	2150.034587253825	228.3353677481289	1116.105220488483	2115.128947659106	250.2689016445526	1080.474414949139	2225.515467488813	546.5313413480309	1154.885994202268	2173.706893160084	531.2897071204062	1104.63843231056	2177.353482775021	644.8620264404486	1172.233345801506	2125.66851296092	628.2455390792626	1127.389475752992	
565	3.76	2230.032281204317	902.4182908461049	915.9748916679216	1807.584912553014	500.0060265693776	959.7918747939851	1819.149470259854	464.9201585738843	918.3594199054404	1851.573172636585	483.9841830656941	961.4551072796284	2175.361302383328	968.9611588673853	865.828511852515	1800.886377630408	285.6585634419728	1001.637325685967	1786.716428792597	315.7015338270863	904.311932325156	2063.696782682762	944.6809859738134	962.6857020645625	1935.620155873433	423.8262506553855	904.436263370784	1933.137814500323	467.0842522326707	931.224098690657	2014.382614209228	434.535881949118	888.6387715673781	2015.97106206527	479.1676171289265	917.5430959461893	2230.892373354151	548.8078013666634	844.894362002804	2171.295575234739	530.0914139377227	882.6787786408249	2190.056030454951	650.2155522372409	834.0541765433425	2132.991774663652	632.9200560158914	868.5346183239417	2221.311153559138	911.487754969398	1107.466566795683	2166.225169014899	81.15719111103549	1043.55751882835	1994.984789458311	31.4833826304863	1032.212608848713	2023.854593659033	47.9400505111042	1074.613936805647	2006.04761549863	76.24647937142556	1031.712133645246	2156.071934999957	956.1933633811711	1154.610822004826	2210.892909014263	47.90945054129792	1012.88012359587	2174.718875321742	41.96551656547292	1108.028417202833	2060.083655957855	949.3883059993944	1045.719670378141	2105.019156667328	153.9631711289488	1093.738733097161	2068.170284354064	178.415844916441	1061.718805732894	2131.185430716133	227.8930878755181	1117.04512886247	2096.809721076162	250.86871992688	1081.592419433429	2215.605278211848	543.8168551250441	1155.932030505432	2162.944835201109	529.788788536894	1106.182719264608	2170.092465638979	643.4262066484196	1173.262265191644	2117.929126222944	628.1874905845862	1128.501192179293	
566	3.766666666666667	2228.561069144008	903.2859839312192	916.6801629906925	1819.069869746248	493.542367296048	957.2350875113365	1832.81984226744	458.420037741058	916.1795649735399	1863.71433940959	479.1893386315227	959.58147822639	2172.573406026546	969.5269585584984	866.5265450617899	1820.667459018139	279.6088514603602	1001.849183387904	1806.856153896979	307.6872511084014	903.9104175704624	2062.238675967061	945.4174094611188	963.7891816056514	1950.663709176025	420.8564816565395	903.8745033207823	1947.004832379369	464.3296066521543	930.0946005058325	2029.129211380157	433.4508544035569	888.121054819619	2029.49971868048	478.360601128538	916.5696454319483	2240.898135061583	553.346967268908	844.3269706974925	2182.118861325683	532.027937909863	881.9902605850115	2196.073421268567	653.0630746858919	833.9260618792649	2139.634530126044	633.3179578548043	868.1606715058657	2220.084624734564	911.2677734515494	1108.271362360688	2142.59624651362	81.51496776837959	1044.772158579573	1971.445210390825	32.25271657497684	1032.746967410044	2000.292591701397	48.23927913526256	1075.340795156294	1982.544919920684	76.97770037936381	1032.73948123612	2154.730076369287	956.6220192076244	1155.399339833535	2187.054642560437	48.34460118279405	1013.648803294059	2151.126229919137	41.73730974796408	1108.562753707592	2058.996034103192	949.8979935723054	1046.806207124792	2083.385933061832	154.6339207185302	1094.8858551563	2047.147757892322	180.0608070999246	1062.926175871268	2111.622255268822	227.802598270454	1118.053064060675	2077.781164379061	251.6624286652088	1082.721838813789	2204.932821551071	541.7041042314188	1156.934553136488	2151.236723077682	529.0004556966447	1107.928334263111	2162.473785085942	642.671904504835	1174.265904103237	2109.675465814105	628.9454958302463	1129.775441988724	
567	3.773333333333333	2227.398235708966	905.0680202799872	917.3853618337032	1830.212784988562	485.6655701282273	955.3002310979832	1846.136011718187	450.8410048831046	914.478514092179	1875.490613552869	473.2627253979632	957.9984665101291	2170.017077191486	971.0739223901596	867.3291624455362	1841.07879974789	272.4403717789039	1001.964702550265	1827.251088590775	298.834502227422	903.6165557142072	2061.095557241566	946.8421530854425	965.0143161792223	1965.432699208842	417.3997682353192	903.4274438291734	1960.356374122142	461.0059939849056	929.1246773739171	2043.461710994981	432.3480296481151	887.6955503983366	2042.357282197162	477.4646957051029	915.7371652852419	2250.654470026578	559.0424503933996	843.821051470772	2192.739024848838	535.235227467002	881.3314448886912	2201.980687092279	656.9777139984806	833.7806834697553	2146.23695780983	634.8723504515922	867.7599300688028	2219.203359566916	911.607091595708	1109.053611185785	2119.068532926879	81.89511008196777	1046.118266543237	1947.839303400935	33.45595968827251	1033.355433192333	1976.698914263543	48.82350581530158	1076.171410171647	1959.085727427967	78.13301441327671	1033.919963544949	2154.186860414034	957.9712121136198	1156.131080337468	2163.219322995236	48.58310119177342	1014.414521335882	2127.461789780534	41.38269274978266	1109.083689130014	2058.261988615103	951.0057275815619	1048.081442587419	2061.442257063728	155.7417035124924	1096.094659571708	2025.800607904101	182.0119555141555	1064.123119379548	2091.489543406443	228.2155300345405	1119.066523277714	2058.149830732445	252.8112159340888	1083.818144405215	2193.618620000921	540.2953185646916	1157.83679445689	2138.785877803275	529.0605593353952	1109.733357024219	2154.578973504532	642.6415920187338	1175.20781655685	2101.042540057642	630.579478224445	1131.122324539929	
568	3.78	2226.589624216335	907.7004647835915	918.1545910469392	1841.119990510728	476.4079844555343	954.0013805611241	1859.169705871271	442.2250498169913	913.2903509248238	1886.98055561874	466.2226086836082	956.7617851848833	2167.783743420777	973.4999902148109	868.2245234783853	1862.106493897681	264.2861846143945	1001.969913430316	1847.893181938383	289.2887328868274	903.3978873176721	2060.287424796221	948.9061502558072	966.3304380018639	1979.929301521742	413.4590118828376	903.1049695361902	1973.222493215984	457.0931419082693	928.3424101104043	2057.356744896342	431.1766137253934	887.3679598145128	2054.54771302041	476.4060851993597	915.0612604891833	2260.105281404287	565.7575976371844	843.3888694997029	2203.052539326088	539.6017070950286	880.6741267940345	2207.773905680826	661.8621353117697	833.6253551485011	2152.764202296651	637.5104819614238	867.3119642313799	2218.659047755466	912.4662439787436	1109.859020473397	2095.705837457171	82.33613270958325	1047.526014926556	1924.201149260899	35.27954754650821	1034.040786404234	1953.131765901913	49.87051708851889	1077.090121747275	1935.739166753225	79.88365933960813	1035.232781371097	2154.4639513208	960.1227898884281	1156.817262797954	2139.395916340659	48.62974448238354	1015.130203980719	2103.721425898412	40.97620629747986	1109.56232517896	2057.88874857469	952.6677272969653	1049.506368817383	2039.320393135837	157.4230900900316	1097.312005617191	2004.238092540259	184.4114457343382	1065.276159778578	2070.950346768512	229.2847511203995	1120.041964301327	2038.051981965155	254.4778163992988	1084.848557484366	2181.783041821757	539.6845909810174	1158.594155562571	2125.806353972373	530.0956126488384	1111.45321867421	2146.483344318251	643.3719045046329	1176.055472025021	2092.172948919428	633.1437807782877	1132.440114226898	
